# xmcd
#
# Track frame offsets:
#	150
#	21675
#	37725
#	65325
#	79125
#	100425
#	119775
#	137400
#	155100
#	170175
#	185325
#	204525
#	232200
#
# Disc length: 3357 seconds
#
# Revision: 1
# Processed by: cddbd v1.5PL3 Copyright (c) Steve Scherf et al.
# Submitted via: EasyCDDAExtractor 5.0.6
#
DISCID=c10d1b0d
DTITLE=Maria Eva Albistur - Insomne
DYEAR=2000
DGENRE=latin
TTITLE0=Serena
TTITLE1=Barco negro
TTITLE2=Sueño
TTITLE3=Flores curativas
TTITLE4=Puerta del sol
TTITLE5=Palo de ciego
TTITLE6=El beso del olvido
TTITLE7=Seña
TTITLE8=Caes
TTITLE9=Inscripcion
TTITLE10=El mundo de Mailio
TTITLE11=Efemerides
TTITLE12=Calma
EXTD=
EXTT0=
EXTT1=
EXTT2=
EXTT3=
EXTT4=
EXTT5=
EXTT6=
EXTT7=
EXTT8=
EXTT9=
EXTT10=
EXTT11=
EXTT12=
PLAYORDER=
